<?xml version="1.0" encoding="UTF-8"?>
<svg width="752pt" height="752pt" version="1.1" viewBox="0 0 752 752" xmlns="http://www.w3.org/2000/svg">
 <g>
  <path d="m355.88 534.92c8.2969 0 15.609-4.125 20.129-10.387 4.5195 6.2656 11.828 10.387 20.129 10.387 13.715 0 24.871-11.152 24.871-24.863 0-2.6133-2.1172-4.7344-4.7344-4.7344-2.6172 0-4.7344 2.1211-4.7344 4.7344 0 8.4883-6.9102 15.391-15.402 15.391-8.4883 0-15.391-6.9062-15.391-15.391v-24.059l23.543-10.23c2.4023-1.043 3.5-3.832 2.457-6.2266-1.0391-2.4023-3.8203-3.5078-6.2266-2.457l-24.516 10.645-24.492-10.645c-2.4141-1.0547-5.1914 0.058594-6.2266 2.457-1.0469 2.3945 0.058594 5.1875 2.457 6.2266l23.527 10.23v24.059c0 8.4883-6.9062 15.391-15.391 15.391-8.4883 0-15.391-6.9062-15.391-15.391 0-2.6133-2.1172-4.7344-4.7344-4.7344s-4.7344 2.1211-4.7344 4.7344c-0.003906 13.707 11.148 24.863 24.859 24.863z"/>
  <path d="m555.97 162.23c-0.69141-1.3516-1.9844-2.293-3.4805-2.5273-1.4805-0.24609-3.0195 0.26172-4.0859 1.332l-56.781 56.781c-2.7578-2.668-5.9688-4.9805-9.6602-6.7266-10.809-5.0898-24.234-4.7461-34.625 0.63281-4.707-10.066-14.621-17.48-26.711-19.543-0.066406-0.007813-0.12891-0.019532-0.19922-0.027344-11.754-1.9805-23.883 1.6016-32.148 9.1406-7.2539-8.4648-18.559-13.266-30.824-12.605-12.105 0.69531-22.875 6.8398-28.945 16.137-9.2578-6.4805-21.938-8.5703-33.266-5.2266-0.14063 0.027344-0.28906 0.066406-0.42969 0.10938-11.949 3.6836-20.688 12.496-23.633 23.328-0.41797-0.13672-0.85547-0.1875-1.2773-0.3125-0.097656-0.12891-0.14844-0.28516-0.26953-0.40234l-66.023-66.031c-1.0703-1.0742-2.6016-1.5742-4.0859-1.332-1.5039 0.24219-2.7969 1.1797-3.4844 2.5352-1.207 2.3672-28.418 57.293 6.0078 110.57-4.3203 3.5-7.8047 7.8906-9.9219 13.008-5.2188 12.629-1.4414 26.734 8.9258 35.766-10.285 9.0781-13.984 23.188-8.7227 35.789 4.9727 11.844 17.09 20.086 30.773 21.191-0.82422 4.6602-0.49219 9.3906 0.81641 13.891-0.027344 0.15234-0.11328 0.28125-0.12891 0.4375-3.9414 43.711-3.4531 85.32 1.4922 127.2 0.023438 0.19922 0.0625 0.39453 0.10547 0.59375 8.1602 32.73 44.023 68.594 76.754 76.754 0.19531 0.046875 0.39453 0.085938 0.59375 0.10938 24.266 2.8633 48.707 4.3008 73.145 4.3008s48.879-1.4336 73.145-4.3008c0.19922-0.023437 0.39844-0.0625 0.59375-0.10938 32.73-8.1562 68.594-44.02 76.754-76.754 0.046875-0.19531 0.085937-0.39453 0.10547-0.59375 5.0703-42.922 5.7148-84.277 2.0117-126.38 2.8359-1.8242 5.4258-3.9922 7.6406-6.5547 8.8789-10.258 10.258-23.98 4.1172-35.301 13.062-5.1602 21.98-17.133 21.98-30.508v-0.53906c-0.085937-13.289-8.9727-25.137-21.941-30.289 48.742-56.773 16.027-122.86 15.684-123.54zm-5.8477 10.469c5.6172 14.926 16.516 54.594-6.9297 93.016-0.98828-5.4453-3.3984-10.734-7.3984-15.312-6.9219-7.9453-17.277-12.508-28.414-12.508-1.9766 0-3.9336 0.14844-5.8672 0.4375-0.33984-4.5781-1.7656-8.9844-4.0352-12.992zm-348.24-4.7344 53.297 53.289c-6.9336 0.59375-13.469 2.8555-19.027 6.8398-10.496 7.5508-15.473 19.855-13.352 31.621-4.457 0.37891-8.7031 1.5781-12.629 3.3477-25.137-38.891-14-79.852-8.2891-95.098zm315.23 345.95c-7.4102 29.102-40.391 62.082-69.496 69.492-47.602 5.5977-95.863 5.5977-143.46 0-29.105-7.4102-62.082-40.391-69.496-69.492-4.3633-37.047-5.1367-73.918-2.4219-112.27 1.3242 1.3242 2.7422 2.5938 4.3242 3.7266 6.4453 4.6094 14.176 7.043 22.359 7.043 4.3398 0 8.625-0.70703 12.66-2.0703 2.9844 10.824 11.738 19.621 23.688 23.262 4.8086 1.4727 9.8555 1.9023 14.801 1.4805v87.656c0 20.891 16.996 37.887 37.887 37.887h56.121c20.891 0 37.887-16.996 37.887-37.887l-0.007813-92.941c2.3555-2.5352 4.3516-5.3555 5.7969-8.4766 10.43 5.375 23.832 5.6875 34.617 0.57422 11.41-5.4023 18.691-15.879 19.52-27.309 1.8945 0.28125 3.8203 0.41797 5.7578 0.41797 4.043 0 7.9766-0.62109 11.68-1.7617 3.3086 40.148 2.6055 79.688-2.2148 120.67zm-197.58-80.801c3.3594-1.1367 6.5508-2.668 9.3945-4.6641 6.0898 9.2969 16.867 15.414 28.945 16.074 0.75781 0.046875 1.5156 0.066406 2.2656 0.066406 11.32 0 21.766-4.7539 28.566-12.715 8.3242 7.5586 20.543 11.121 32.363 9.0742 4.1055-0.71094 7.9297-2.082 11.41-3.9219v85.719c0 15.672-12.742 28.414-28.414 28.414h-56.121c-15.672 0-28.414-12.742-28.414-28.414v-89.633zm233.22-117 4.7344-0.027343-4.7344 0.51172c0 11.035-8.832 20.777-21.004 23.168-1.6562 0.32812-3.0117 1.5078-3.5625 3.0977-0.55469 1.5898-0.21875 3.3594 0.88281 4.6367 7.2539 8.457 7.2109 20.266-0.097656 28.719-5.1133 5.9258-12.887 9.3242-21.324 9.3242-3.168 0-6.2734-0.48828-9.2383-1.4492-1.5469-0.50391-3.2734-0.17188-4.5234 0.89062-1.2539 1.0625-1.8711 2.6953-1.625 4.3203 1.4727 9.7305-4.1328 19.395-13.941 24.039-9.6289 4.5625-21.984 3.3047-30.223-2.9453-1.2773-0.96484-2.9609-1.2227-4.4688-0.68359-1.5117 0.54297-2.6445 1.8203-3.0078 3.3828-2.1797 9.3945-10.484 16.672-21.156 18.523-10.578 1.8242-21.488-2.2344-27.465-10.109-0.96484-1.2695-2.5-1.9609-4.082-1.8672-1.5898 0.10547-3.0195 1-3.8086 2.3828-4.5977 8.0781-13.777 13.094-23.969 13.094-0.55078 0-1.1016-0.015625-1.6992-0.050782-10.754-0.58594-20.043-6.7812-23.66-15.781-0.59375-1.4805-1.8945-2.5625-3.457-2.8789-0.30859-0.0625-0.625-0.09375-0.93359-0.09375-1.2539 0-2.4688 0.49609-3.3672 1.4062-7.0742 7.1562-18.746 9.9648-28.984 6.8242-10.418-3.1758-17.508-11.508-18.066-21.215-0.09375-1.6211-1.0039-3.0781-2.4258-3.8633-1.4219-0.78906-3.1406-0.80078-4.5625-0.023438-4.2227 2.293-9.0898 3.5-14.07 3.5039-6.1914 0-12.016-1.8242-16.852-5.2773-9.0039-6.4375-12.332-17.191-8.2773-26.758 0.64844-1.5352 0.44531-3.2969-0.53516-4.6406-0.98047-1.3438-2.5625-2.0781-4.2578-1.9219-12.156 1.1211-23.719-5.3555-27.922-15.383-4.3555-10.434-0.050781-21.965 10.473-28.055 1.4688-0.84766 2.3672-2.4219 2.3633-4.1094-0.003906-1.6953-0.91406-3.2578-2.3867-4.1016-10.574-6.0469-14.949-17.566-10.633-28.016 4.1523-10.074 15.684-16.59 27.844-15.523 1.6523 0.14844 3.2695-0.59375 4.2422-1.9414 0.97656-1.3516 1.1758-3.1133 0.51562-4.6406-4.0859-9.5586-0.79688-20.324 8.1914-26.789 4.8477-3.4805 10.703-5.3164 16.922-5.3164 4.9531 0 9.7969 1.1992 14.02 3.4609 1.4336 0.77344 3.1484 0.75391 4.5664-0.042969 1.4102-0.78906 2.3203-2.2578 2.4102-3.875 0.50781-9.5859 7.418-17.848 17.637-21.145 0.125-0.027344 0.24609-0.058594 0.36328-0.097656 10.242-3.1523 21.93-0.37109 29.004 6.7773 1.1211 1.1328 2.7617 1.6328 4.3047 1.3086 1.5664-0.31641 2.8633-1.4023 3.457-2.8789 3.5977-8.9961 12.875-15.211 23.621-15.832 10.844-0.60156 20.848 4.5 25.707 13.008 0.78516 1.3828 2.2227 2.2773 3.8086 2.3789 1.5781 0.085938 3.1211-0.60156 4.082-1.875 5.9609-7.8945 16.84-11.957 27.41-10.145 0.066407 0.007813 0.12891 0.019531 0.19531 0.027344 10.574 1.8672 18.828 9.082 21.035 18.438 0.37109 1.5625 1.5078 2.832 3.0195 3.3711 1.5078 0.53906 3.1953 0.28125 4.4648-0.69922 8.1875-6.2578 20.547-7.5391 30.199-2.9883 9.8086 4.6172 15.43 14.258 13.988 23.992-0.24219 1.625 0.37891 3.2578 1.6328 4.3125 1.2656 1.0625 2.9727 1.3906 4.5312 0.88281 2.9844-0.98438 6.1172-1.4766 9.3164-1.4766 8.3984 0 16.148 3.3711 21.277 9.2617 6.25 7.1641 7.2031 16.762 2.9062 24.684-0.98047 1.1016-1.9766 2.2031-3.0312 3.2969-1.8203 1.8789-1.7617 4.8828 0.11719 6.6953 0.09375 0.089844 0.20703 0.11719 0.30469 0.19922 0.68359 0.77344 1.582 1.3398 2.6289 1.543 12.211 2.3203 21.109 12.023 21.176 23.055z"/>
 </g>
</svg>
